<svg width="28" height="31" viewBox="0 0 28 31" fill="none" xmlns="http://www.w3.org/2000/svg">
<g clip-path="url(#clip0_33_350)" filter="url(#filter0_d_33_350)">
<g filter="url(#filter1_d_33_350)">
<path d="M17.0038 8.12814C17.0038 8.12814 14.54 6.21564 12.1794 8.18627C11.3581 8.87064 10.9513 9.79127 10.5931 10.8731C9.94251 12.8419 9.67813 17.0681 12.5731 17.0681C13.8238 17.0681 15.4981 16.3856 16.5294 13.6763L17.0019 8.12814H17.0038Z" stroke="#484852" stroke-miterlimit="10" stroke-linecap="square"/>
<path d="M16.5388 14.1188C16.5988 15.1781 17.0094 17.7056 19.6288 16.8169C23.4951 15.5044 24.0369 5.03438 18.0444 2.92501C12.2751 0.894381 5.43506 4.17188 5.43506 12.7725C5.43506 21.3731 12.7907 22.8375 17.0057 20.9006" stroke="#484852" stroke-miterlimit="10" stroke-linecap="square"/>
</g>
</g>
<defs>
<filter id="filter0_d_33_350" x="-2" y="0" width="32" height="32" filterUnits="userSpaceOnUse" color-interpolation-filters="sRGB">
<feFlood flood-opacity="0" result="BackgroundImageFix"/>
<feColorMatrix in="SourceAlpha" type="matrix" values="0 0 0 0 0 0 0 0 0 0 0 0 0 0 0 0 0 0 127 0" result="hardAlpha"/>
<feOffset dy="4"/>
<feGaussianBlur stdDeviation="2"/>
<feComposite in2="hardAlpha" operator="out"/>
<feColorMatrix type="matrix" values="0 0 0 0 0 0 0 0 0 0 0 0 0 0 0 0 0 0 0.25 0"/>
<feBlend mode="normal" in2="BackgroundImageFix" result="effect1_dropShadow_33_350"/>
<feBlend mode="normal" in="SourceGraphic" in2="effect1_dropShadow_33_350" result="shape"/>
</filter>
<filter id="filter1_d_33_350" x="0.935059" y="1.84259" width="26.1089" height="28.3146" filterUnits="userSpaceOnUse" color-interpolation-filters="sRGB">
<feFlood flood-opacity="0" result="BackgroundImageFix"/>
<feColorMatrix in="SourceAlpha" type="matrix" values="0 0 0 0 0 0 0 0 0 0 0 0 0 0 0 0 0 0 127 0" result="hardAlpha"/>
<feOffset dy="4"/>
<feGaussianBlur stdDeviation="2"/>
<feComposite in2="hardAlpha" operator="out"/>
<feColorMatrix type="matrix" values="0 0 0 0 0 0 0 0 0 0 0 0 0 0 0 0 0 0 0.25 0"/>
<feBlend mode="normal" in2="BackgroundImageFix" result="effect1_dropShadow_33_350"/>
<feBlend mode="normal" in="SourceGraphic" in2="effect1_dropShadow_33_350" result="shape"/>
</filter>
<clipPath id="clip0_33_350">
<rect width="24" height="24" fill="white" transform="translate(2)"/>
</clipPath>
</defs>
</svg>
