<svg width="14" height="14" viewBox="0 0 14 14" fill="none" xmlns="http://www.w3.org/2000/svg">
<path d="M0.333496 4.22226H3.11127V13.6667H0.333496V4.22226ZM1.71405 3.11115H1.6985C0.869607 3.11115 0.333496 2.49337 0.333496 1.72171C0.333496 0.933374 0.886274 0.333374 1.73016 0.333374C2.57516 0.333374 3.09572 0.933374 3.11127 1.72171C3.11127 2.49282 2.57516 3.11115 1.71405 3.11115ZM13.6668 13.6667H10.8891V8.61171C10.8891 7.3906 10.2085 6.55726 9.11572 6.55726C8.28183 6.55726 7.83072 7.11949 7.61183 7.66282C7.53183 7.85726 7.55572 8.39504 7.55572 8.66671V13.6667H4.77794V4.22226H7.55572V5.6756C7.95627 5.0556 8.5835 4.22226 10.1879 4.22226C12.1757 4.22226 13.6663 5.47226 13.6663 8.26337L13.6668 13.6667Z" fill="#0A142F"/>
</svg>
