<svg width="29" height="27" viewBox="0 0 29 27" fill="none" xmlns="http://www.w3.org/2000/svg">
<path d="M8.50521 15.24H5.28271L1.72021 23.91H27.6652L24.1027 15.24H20.8827" stroke="#484852" stroke-miterlimit="10" stroke-linecap="square"/>
<path d="M21.1376 7.685C21.1376 8.6925 20.9051 9.6475 20.4926 10.4975C19.4476 12.6475 14.6926 19.3 14.6926 19.3C14.6926 19.3 10.0501 12.7225 8.97506 10.6625C8.51006 9.7725 8.24756 8.76 8.24756 7.685C8.24756 4.125 11.1326 1.24 14.6926 1.24C18.2526 1.24 21.1376 4.125 21.1376 7.685Z" stroke="#484852" stroke-miterlimit="10" stroke-linecap="square"/>
<path d="M14.6924 10.3125C16.1436 10.3125 17.3199 9.13613 17.3199 7.685C17.3199 6.23388 16.1436 5.0575 14.6924 5.0575C13.2413 5.0575 12.0649 6.23388 12.0649 7.685C12.0649 9.13613 13.2413 10.3125 14.6924 10.3125Z" stroke="#484852" stroke-miterlimit="10" stroke-linecap="square"/>
<path d="M1.72021 26.155H27.6652" stroke="#484852" stroke-miterlimit="10" stroke-linecap="square"/>
</svg>
